<?xml version="1.0" encoding="utf-8"?>
<!-- Generator: Adobe Illustrator 21.0.0, SVG Export Plug-In . SVG Version: 6.00 Build 0)  -->
<svg version="1.1" id="Layer_1" xmlns="http://www.w3.org/2000/svg" xmlns:xlink="http://www.w3.org/1999/xlink" x="0px" y="0px"
	 viewBox="0 0 149.2 172.2" style="enable-background:new 0 0 149.2 172.2;" xml:space="preserve">
<style type="text/css">
	.st0{fill:#494949;}
	.st1{fill:#FEFEFE;}
</style>
<polygon class="st0" points="149.2,129.2 74.6,172.2 0,129.2 0,43.1 74.6,0 149.2,43.1 "/>
<g>
	<g>
		<path class="st1" d="M57.8,138c1.1-9.3,3.9-18.1,8.9-26c3-4.8,6.7-9.1,10.1-13.6c4.7-6.1,8.1-12.8,8.5-20.6
			c0.4-6.8-1.2-13.2-4.5-19.1c-2.2-3.9-5-7.6-7.5-11.3c-0.2-0.2-0.3-0.5-0.6-1c-1.4,3.5-2.6,6.6-3.9,10c-1.6-2.3-3.4-3.3-6-2.6
			c0.8,4.5-1.1,8.2-3.6,11.6c-0.5,0.6-1.1,1.2-1.6,1.7c-2.9,2.9-3.4,7.6-1,10.5c1-1,2-1.8,1.8-3.6c-0.3-2.4,1.9-4.4,4.3-4.3
			c1.3,0.1,2.5-0.1,3.8-0.2c0,0-0.1,0.3-0.3,0.6c-0.6,1.2-1.2,2.3-1.8,3.5c-0.8,1.6-2.1,2.6-3.9,2.6c-1.5,0-2.3,0.9-3.4,1.9
			c4.7,1.7,9.1,1.3,13.6-0.8c-1,1.4-3.4,2.9-5.9,3.7c-3.8,1.2-7.7,1.1-11.4-0.4c-1-0.4-1.7-0.3-2.4,0.3c-3.2,2.5-6.5,4.9-9.8,7.4
			c-0.6,0.5-1,0.9-0.5,1.8c0.8,1.5,0.3,2.9-0.6,4.1c3.1,3,8.8,3.7,13.5,1.5c3.7-1.7,7.5-1.8,11.3-0.3c1.4,0.6,2.6,1.5,4.1,2.4
			c1.1-4.6,0.9-9.1-0.3-13.8c5,5.6,4.8,16.4-0.4,22.2c-0.2-0.5-0.4-1-0.6-1.5c-1.4-3.7-4.2-5.6-8.1-5.8c-3.4-0.2-6.7,0.6-9.9,1.7
			c-6.4,2.2-12.9-0.3-16.4-6.1c-0.3-0.5-0.9-1-1.4-1.3c-1.1-0.7-1.7-1.5-1.6-2.8c0.1-1.3,0.9-2.1,2.2-2.5c0.6-0.2,1.3-0.5,1.9-0.8
			c4.7-3.3,9.4-6.7,14.1-10c0.7-0.5,1-1.1,1-2c-0.1-6.7,2.6-12,8.2-15.7c1-0.7,1.3-1.3,1.1-2.4c-0.6-4.7-2.3-8.8-5.4-12.4
			c-0.2-0.3-0.4-0.5-0.8-1.1c5.8-0.4,10.6,1.4,14.9,5.4c0.2-5.5-0.7-10.5-2.5-15.6c0.7,0.3,1.1,0.4,1.5,0.7
			c26.5,14.4,32.2,50.4,11.5,72.3c-7.5,8-13,17.3-18,27C59.3,134.9,58.6,136.4,57.8,138z"/>
		<path class="st1" d="M113.9,91.7c0.9-8-1.1-15-5.4-21.5c0.8,0.5,1.6,1,2.3,1.5C106,61.5,98.4,54.1,88.2,49.1
			c5-0.5,15.3,4.7,20.9,10.4c5.7,5.8,9.1,12.8,10.3,21.3c-1-0.9-1.7-1.5-2.7-2.4c1.5,14.2-1.1,27.3-8,39.8c0.5-3.8,1.1-7.3,1.4-10.8
			c0.2-3.5,0-7-0.1-10.6c-1.9,5.7-4.5,10.9-8.6,15.7c0-1.4,0-2.4,0-3.9c-0.4,0.5-0.6,0.7-0.7,1c-3.3,6.3-7.8,11.5-13.7,15.5
			c-0.5,0.4-1.1,0.7-1.7,0.9c-5.8,1.9-9.6,6-12.3,11.3c-0.2,0.4-0.4,0.9-0.7,1.3c0,0-0.1,0.1-0.3,0.2c0-1.1-0.1-2,0-3
			c0.6-4.8,2.9-8.5,7-11.1c13.5-8.5,19.9-20.3,17.7-36.4c0-0.1,0-0.3,0-0.8c3.7,4.2,5.6,8.8,6.6,14.4c3.8-6.8,4.7-13.7,3.1-20.9
			c0.1-0.1,0.3-0.1,0.4-0.2C109.2,84.5,111.5,88,113.9,91.7z"/>
		<path class="st1" d="M90.5,59c3.9,2,6.4,4.8,7.8,8.6c0.3,0.8,0.6,1.6,0.6,2.4c0.1,2.8,0.9,5.3,2.1,7.8c1.6,3.2,1.8,6.7,1.4,10.2
			c0,0.2-0.1,0.4-0.1,0.6c0,0.1-0.1,0.1-0.3,0.3c-0.4-1-0.7-1.9-1.1-2.8c-1.2-3.1-3.1-5.8-5.3-8.2c-0.4-0.4-0.7-1.2-0.6-1.7
			c1.2-6.2-0.3-11.7-4.4-16.5C90.7,59.6,90.7,59.5,90.5,59z"/>
	</g>
	<polygon class="st1" points="39.3,88.9 51.3,78.8 54.3,68.8 58,62 60.5,56.3 60.5,49.1 67.5,51.8 72,43 79.5,51 87.5,71.3 
		80.5,99.3 72,107 68.4,106.3 68,99.8 61.8,96.8 54.5,97.3 47,99 39.3,97.5 37.3,91.8 	"/>
	<path class="st1" d="M82,49.1c0,0,22.3-2.4,31,25.9l3,13.9l-3.3,11.3l-4.3-7.8L106,106h-5.5l-4.8,6.5l-18.2,16.3l-2.9,3.8
		c0,0-3-5.6-16.8,5.5"/>
</g>
</svg>
